<svg width="41" height="33" fill="none" xmlns="http://www.w3.org/2000/svg"><g clip-path="url(#clip0)"><path fill="#F7F7F7" d="M0 0h41v33H0z"/><path stroke="#D1D1D1" d="M.5-1v35"/><path d="M25.763 14.242a.813.813 0 00-.58-.242h-.004a.804.804 0 00-.574.243l-3.52 3.532a.12.12 0 01-.17 0l-3.521-3.533a.818.818 0 00-1.16.002.827.827 0 00.003 1.158l4.182 4.195a.804.804 0 00.575.244H21a.813.813 0 00.58-.242l4.186-4.2a.827.827 0 00-.002-1.157z" fill="#202527"/></g><defs><clipPath id="clip0"><path fill="#fff" d="M0 0h41v33H0z"/></clipPath></defs></svg>