<?xml version="1.0" encoding="utf-8"?><svg xmlns="http://www.w3.org/2000/svg" xmlns:xlink="http://www.w3.org/1999/xlink"><symbol viewBox="0 0 10 6" id="angle" xmlns="http://www.w3.org/2000/svg"><path d="M9.763.242A.813.813 0 009.183 0H9.18a.804.804 0 00-.574.243l-3.52 3.532a.12.12 0 01-.17 0L1.395.242a.818.818 0 00-1.16.002.827.827 0 00.003 1.158L4.42 5.597a.804.804 0 00.575.244H5a.813.813 0 00.58-.242l4.186-4.2A.827.827 0 009.763.242z"/></symbol><symbol viewBox="0 0 17 17" id="close" xmlns="http://www.w3.org/2000/svg"><path d="M0 15.607L15.607 0 17 1.394 1.394 17.001z"/><path d="M15.606 17L0 1.393 1.393 0 17 15.606z"/></symbol><symbol viewBox="0 0 25 22" id="favorites" xmlns="http://www.w3.org/2000/svg"><path d="M18.03 0c-2.483 0-4.637 1.433-5.73 3.537C11.207 1.433 9.053 0 6.57 0 2.986 0 .079 2.99.079 6.679a6.8 6.8 0 00.758 3.127c.018.141.2.427.51.826.2.278.415.544.652.786C4.916 14.798 12.3 22 12.3 22s7.384-7.203 10.302-10.581c.237-.243.452-.509.651-.786.311-.4.493-.685.512-.827a6.802 6.802 0 00.757-3.127C24.522 2.99 21.615 0 18.03 0zm4.929 7.271c-.007.057-.017.114-.026.171a5.591 5.591 0 01-.119.588 5.62 5.62 0 01-.127.406c-.016.046-.031.092-.049.138a5.205 5.205 0 01-.229.511c-.063.121-.14.234-.211.35a.149.149 0 01.01.012c.323.383-9.42 10.103-9.908 10.475C11.813 19.55 2.07 9.83 2.393 9.447a.146.146 0 01.01-.014c-.072-.115-.148-.227-.212-.349a5.185 5.185 0 01-.229-.511l-.049-.138a5.094 5.094 0 01-.246-.993c-.009-.057-.019-.114-.026-.171a5.414 5.414 0 01-.035-.592c0-2.821 2.222-5.108 4.965-5.108a4.795 4.795 0 01.823.077c.197.033.39.077.578.133l.049.013c.207.065.408.147.602.238.037.017.073.036.11.054.175.088.346.186.51.293l.001-.022s.219.167.536.435c.014.011.029.02.043.033l.026.024c.661.565 1.723 1.553 2.451 2.651.728-1.098 1.79-2.086 2.451-2.65l.026-.025c.014-.011.03-.02.043-.033.317-.268.536-.435.536-.435l.002.022a4.99 4.99 0 01.51-.293c.036-.018.072-.037.109-.054.194-.091.395-.173.602-.238l.05-.013a4.88 4.88 0 01.742-.16c.216-.03.434-.05.658-.05 2.743 0 4.965 2.287 4.965 5.108 0 .2-.013.397-.035.592z"/></symbol><symbol viewBox="0 0 17 17" id="quest" xmlns="http://www.w3.org/2000/svg"><path d="M11.605 4.861c.133.313.206.666.206 1.065 0 .18-.013.347-.04.5a2.446 2.446 0 01-.313.852 2.86 2.86 0 01-.273.386 5.054 5.054 0 01-.426.433c-.18.167-.4.347-.659.546-.22.173-.4.327-.546.473-.146.147-.26.273-.333.386a1.204 1.204 0 00-.166.4 2.426 2.426 0 00-.053.513v.32H7.617v-.454c0-.26.026-.499.073-.712.047-.213.12-.413.213-.58.093-.173.226-.346.386-.525.16-.18.366-.36.6-.547.28-.22.512-.419.692-.592.18-.173.313-.32.393-.44.08-.12.14-.26.18-.406.04-.146.06-.306.06-.473a1.3 1.3 0 00-.1-.526.996.996 0 00-.3-.386 1.33 1.33 0 00-.486-.24 2.447 2.447 0 00-.66-.08c-.226 0-.439.014-.645.047a3.58 3.58 0 00-.6.147 7.99 7.99 0 00-.565.213c-.187.08-.373.16-.553.246l-.3-.62-.3-.619a6.31 6.31 0 011.486-.599 6.316 6.316 0 011.59-.2c.46 0 .88.054 1.246.167.366.113.686.28.959.506.28.213.486.486.619.799zm-3.25 7.045c-.345 0-.605.087-.778.266-.173.18-.26.447-.26.8 0 .173.02.326.067.46.046.132.113.245.2.345.086.094.2.167.326.213.126.047.28.074.446.074.166 0 .313-.027.446-.074a.81.81 0 00.333-.22.96.96 0 00.206-.346 1.35 1.35 0 00.067-.452c0-.167-.02-.32-.067-.453a.955.955 0 00-.2-.34.829.829 0 00-.326-.206 1.365 1.365 0 00-.46-.067zm6.133-9.416a8.467 8.467 0 012.49 6 8.467 8.467 0 01-2.49 6 8.464 8.464 0 01-5.999 2.49 8.453 8.453 0 01-5.999-2.49 8.455 8.455 0 01-2.49-6c0-2.344.952-4.461 2.49-6a8.465 8.465 0 016-2.49c2.344 0 4.46.952 5.999 2.49zm-.986 11.014A7.066 7.066 0 0015.58 8.49a7.066 7.066 0 00-2.078-5.014A7.064 7.064 0 008.49 1.398a7.064 7.064 0 00-5.014 2.078A7.066 7.066 0 001.398 8.49c0 1.958.792 3.73 2.077 5.014a7.064 7.064 0 005.014 2.078 7.064 7.064 0 005.013-2.078z"/></symbol></svg>